name C:\Users\tom_v\My Drive\PostDoc\MusculoskeletalSpecialization\ResultsSprinting\Case_1\motion.mot
datacolumns 32
datarows 5
range 0.11744522 0.13623646
endheader 
time	pelvis_tilt	pelvis_list	pelvis_rotation	pelvis_tx	pelvis_ty	pelvis_tz	hip_flexion_l	hip_adduction_l	hip_rotation_l	hip_flexion_r	hip_adduction_r	hip_rotation_r	knee_angle_l	knee_angle_r	ankle_angle_l	ankle_angle_r	subtalar_angle_l	subtalar_angle_r	mtp_angle_l	mtp_angle_r	lumbar_extension	lumbar_bending	lumbar_rotation	arm_flex_l	arm_add_l	arm_rot_l	arm_flex_r	arm_add_r	arm_rot_r	elbow_flex_l	elbow_flex_r	
          0.11744522	        -11.03383591	         13.66084487	        -21.87055806	          0.94818681	          0.93416216	          0.02632091	         55.73899131	         -3.32754897	         -9.31211928	          6.57495343	        -16.65811544	          9.72565294	        -60.57015883	        -39.36798720	         15.13961318	        -16.08875128	          5.95849848	        -10.89581399	          2.21722555	         -2.98347783	         -0.30379916	        -12.12363672	         25.74454998	        -69.99923728	        -42.13970528	          0.66035965	         49.99997230	          4.95652349	         -3.48734437	          0.06397397	        114.80967370	
          0.12214303	         -9.93740123	         13.31053473	        -22.77421300	          0.98501338	          0.93702966	          0.02746285	         55.28397838	         -4.06509238	         -9.58263536	          5.31893554	        -17.18406346	          9.77036349	        -59.45307041	        -40.05519299	         16.13715999	        -19.42640400	          5.78085115	         -8.20776192	          2.60554831	         -4.06461443	         -1.60276637	        -12.44338755	         27.10343370	        -69.99752708	        -42.54201317	         -5.82851555	         49.97705488	          4.87132174	         -1.95144727	          0.17584168	        114.07301197	
          0.12684084	         -8.77375340	         12.86968782	        -23.71120660	          1.02174578	          0.94009363	          0.02840972	         54.53849021	         -4.76951070	         -9.81754712	          4.06435340	        -17.66775315	          9.87827083	        -58.10310341	        -40.79507497	         17.10527417	        -20.79096601	          5.73348511	         -4.43580603	          2.68407865	         -2.42255914	         -3.03041292	        -12.71733888	         28.36650915	        -69.97646607	        -42.55285103	        -10.39187151	         49.93518976	          3.93579366	         -0.02182688	          1.40673288	        112.63219890	
          0.13153865	         -7.57536977	         12.31049484	        -24.66049111	          1.05836120	          0.94336743	          0.02915725	         53.51608936	         -5.44594166	         -9.96373005	          2.82849520	        -18.02577024	          9.96900700	        -56.48960638	        -41.57341491	         18.01151835	        -21.01850021	          5.84918713	         -2.00347433	          2.41487196	         -0.84176357	         -4.57002363	        -12.91320352	         29.52808858	        -69.97548328	        -42.10974581	        -12.75693787	         49.91088277	          2.17713676	          2.23891451	          3.78561969	        110.47949128	
          0.13623646	         -6.36605051	         11.64674526	        -25.61087806	          1.09485327	          0.94685249	          0.02966235	         52.23696922	         -6.06980268	         -9.99999205	          1.65549981	        -18.25940094	          9.99765360	        -54.59304113	        -42.34881723	         18.81060205	        -21.29602069	          6.08643247	         -1.93346135	          1.89710515	          0.49548070	         -6.19435885	        -13.04074073	         30.61187713	        -69.99688812	        -41.26198827	        -13.18989438	         49.92529055	         -0.36187533	          4.79693260	          7.35238030	        107.71643715	
